HIERARCHY
ROOT Hips
{
    OFFSET 0.000000 0.000000 0.000000
    CHANNELS 6 Xposition Yposition Zposition Zrotation Xrotation Yrotation
    JOINT Spine
    {
        OFFSET -0.000000 14.517291 0.000000
        CHANNELS 3 Zrotation Xrotation Yrotation
        JOINT Spine1
        {
            OFFSET -0.000000 37.558300 0.000000
            CHANNELS 3 Zrotation Xrotation Yrotation
            JOINT Neck
            {
                OFFSET -0.000000 37.404057 3.400369
                CHANNELS 3 Zrotation Xrotation Yrotation
                JOINT Head
                {
                    OFFSET -0.000000 24.785618 -3.540803
                    CHANNELS 3 Zrotation Xrotation Yrotation
                    End Site
                    {
                        OFFSET -0.000000 35.408028 0.000000
                    }
                }
            }
            JOINT LeftShoulder
            {
                OFFSET 6.992933 33.973492 -0.192664
                CHANNELS 3 Zrotation Xrotation Yrotation
                JOINT LeftArm
                {
                    OFFSET 21.527611 0.000000 0.000000
                    CHANNELS 3 Zrotation Xrotation Yrotation
                    JOINT LeftForeArm
                    {
                        OFFSET 56.353916 0.000000 0.000000
                        CHANNELS 3 Zrotation Xrotation Yrotation
                        JOINT LeftHand
                        {
                            OFFSET 47.774071 0.000000 0.000000
                            CHANNELS 3 Zrotation Xrotation Yrotation
                            End Site
                            {
                                OFFSET 26.556021 0.000000 0.000000
                            }
                        }
                    }
                }
            }
            JOINT RightShoulder
            {
                OFFSET -7.065357 33.973492 -0.192664
                CHANNELS 3 Zrotation Xrotation Yrotation
                JOINT RightArm
                {
                    OFFSET -21.527611 0.000000 0.000000
                    CHANNELS 3 Zrotation Xrotation Yrotation
                    JOINT RightForeArm
                    {
                        OFFSET -56.353916 0.000000 0.000000
                        CHANNELS 3 Zrotation Xrotation Yrotation
                        JOINT RightHand
                        {
                            OFFSET -47.774071 0.000000 0.000000
                            CHANNELS 3 Zrotation Xrotation Yrotation
                            End Site
                            {
                                OFFSET -26.556021 0.000000 0.000000
                            }
                        }
                    }
                }
            }
        }
    }
    JOINT LeftUpLeg
    {
        OFFSET 17.704014 0.000000 0.000000
        CHANNELS 3 Zrotation Xrotation Yrotation
        JOINT LeftLeg
        {
            OFFSET -0.000000 -81.181816 0.000000
            CHANNELS 3 Zrotation Xrotation Yrotation
            JOINT LeftFoot
            {
                OFFSET -0.000000 -62.821102 0.000000
                CHANNELS 3 Zrotation Xrotation Yrotation
                JOINT LeftToeBase
                {
                    OFFSET -0.000000 -11.507608 26.556021
                    CHANNELS 3 Zrotation Xrotation Yrotation
                    End Site
                    {
                        OFFSET -0.000000 0.000000 7.081605
                    }
                }
            }
        }
    }
    JOINT RightUpLeg
    {
        OFFSET -17.704014 0.000000 0.000000
        CHANNELS 3 Zrotation Xrotation Yrotation
        JOINT RightLeg
        {
            OFFSET -0.000000 -81.181816 0.000000
            CHANNELS 3 Zrotation Xrotation Yrotation
            JOINT RightFoot
            {
                OFFSET -0.000000 -62.821102 0.000000
                CHANNELS 3 Zrotation Xrotation Yrotation
                JOINT RightToeBase
                {
                    OFFSET -0.000000 -11.507608 26.556021
                    CHANNELS 3 Zrotation Xrotation Yrotation
                    End Site
                    {
                        OFFSET -0.000000 0.000000 7.081605
                    }
                }
            }
        }
    }
}
MOTION
Frames:    9
Frame Time:    0.008333
11.770441    142.042892    31.200499    1.869200    1.577470    -7.461234    0.656280    1.505671    5.847456    -0.434534    -1.380219    1.946485    14.032136    3.432446    10.128128    -10.340787    0.003240    7.412171    12.714252    1.628275    -14.411408    -4.544486    -10.240047    -21.388369    12.143505    -0.161320    -61.179390    -14.368652    13.276852    -47.375214    -10.794129    -4.390982    -4.578576    30.574337    -29.173374    41.347042    8.618114    -32.722565    100.003548    28.191538    -32.823982    38.935062    14.313294    -44.091030    -9.425722    -18.108269    28.535772    -12.462663    -12.882417    5.598286    35.050411    0.000000    0.000000    0.000000    -14.205215    4.402888    -32.034187    3.132655    48.683468    -17.085455    4.634145    -35.439255    -14.349614    0.000000    0.000000    0.000000    
11.796507    142.037827    31.239902    1.864566    1.574652    -7.447541    0.683148    1.492782    5.855654    -0.457549    -1.374844    1.949046    14.068568    3.427162    10.132727    -10.385792    0.034944    7.408349    12.719358    1.639962    -14.435847    -4.558589    -10.250814    -21.395315    12.124625    -0.150704    -61.119507    -14.353477    13.267831    -47.419209    -10.793166    -4.401533    -4.605133    30.531982    -29.150959    41.304123    8.621367    -32.737255    99.997345    28.205729    -32.834648    38.943481    14.285898    -44.104389    -9.412487    -18.102047    28.593391    -12.510051    -12.851636    5.563828    35.065788    0.000000    0.000000    0.000000    -14.214582    4.426138    -32.068913    3.119799    48.677052    -17.041876    4.630308    -35.420956    -14.380981    0.000000    0.000000    0.000000    
11.821429    142.034164    31.274858    1.868108    1.581569    -7.436555    0.703670    1.479345    5.857443    -0.482482    -1.378902    1.949391    14.078624    3.432077    10.134208    -10.401515    0.043108    7.407784    12.721663    1.642421    -14.449871    -4.572681    -10.199590    -21.391609    12.144303    -0.218795    -61.078812    -14.386555    13.223060    -47.428444    -10.799560    -4.397745    -4.621544    30.513496    -29.147394    41.275036    8.624336    -32.744110    99.997116    28.216635    -32.841038    38.943169    14.246228    -44.132210    -9.386998    -18.071426    28.667637    -12.571896    -12.821286    5.540046    35.054684    0.000000    0.000000    0.000000    -14.226239    4.432971    -32.078903    3.121685    48.669403    -17.064013    4.638062    -35.401047    -14.370753    0.000000    0.000000    0.000000    
11.849625    142.032196    31.313389    1.878884    1.579259    -7.439656    0.712348    1.475011    5.873448    -0.505205    -1.386814    1.954441    14.112288    3.447292    10.138627    -10.445359    0.042233    7.404009    12.727068    1.649923    -14.473572    -4.595756    -10.201729    -21.386711    12.151635    -0.227521    -61.048466    -14.397639    13.222456    -47.448555    -10.797662    -4.380893    -4.649287    30.501921    -29.150862    41.264313    8.629164    -32.746330    99.999504    28.218563    -32.851051    38.930164    14.209650    -44.143883    -9.389724    -18.066071    28.718664    -12.603917    -12.786587    5.527646    35.057659    0.000000    0.000000    0.000000    -14.247728    4.441460    -32.066490    3.123958    48.663887    -17.075922    4.631783    -35.381622    -14.378736    0.000000    0.000000    0.000000    
11.876516    142.031082    31.347412    1.888354    1.574341    -7.455607    0.710334    1.485204    5.887435    -0.504231    -1.401063    1.959079    14.114801    3.450527    10.151226    -10.463491    0.034729    7.414027    12.712311    1.651696    -14.474937    -4.609751    -10.179929    -21.384293    12.179584    -0.256900    -61.015717    -14.415240    13.217454    -47.478462    -10.821222    -4.386723    -4.664641    30.492535    -29.136147    41.236176    8.630262    -32.746525    100.007141    28.196186    -32.859119    38.936527    14.183771    -44.152210    -9.365360    -18.051327    28.782375    -12.641678    -12.750263    5.505594    35.066826    0.000000    0.000000    0.000000    -14.266340    4.436669    -32.004162    3.151092    48.670177    -17.134930    4.632233    -35.356289    -14.394806    0.000000    0.000000    0.000000    
11.905291    142.028992    31.377554    1.905968    1.574807    -7.486646    0.710202    1.494114    5.911016    -0.529926    -1.418228    1.966554    14.136521    3.452911    10.157454    -10.487147    0.027620    7.414238    12.716324    1.653561    -14.472025    -4.624412    -10.190683    -21.374439    12.165160    -0.271149    -61.032753    -14.442928    13.207873    -47.467972    -10.813993    -4.385815    -4.674062    30.472622    -29.122856    41.215210    8.625079    -32.772449    100.014542    28.222946    -32.870476    38.944057    14.170878    -44.161613    -9.359322    -18.067789    28.827902    -12.627616    -12.727939    5.479218    35.076687    0.000000    0.000000    0.000000    -14.294786    4.416166    -31.911106    3.197371    48.682766    -17.201868    4.641934    -35.334251    -14.443803    0.000000    0.000000    0.000000    
11.930718    142.027542    31.411600    1.919789    1.561524    -7.525631    0.701279    1.516859    5.939386    -0.539250    -1.437737    1.975818    14.164476    3.480450    10.169186    -10.528466    -0.014904    7.416932    12.712532    1.669361    -14.479858    -4.630832    -10.217595    -21.361214    12.170175    -0.262894    -61.024071    -14.449871    13.223459    -47.485962    -10.815996    -4.376112    -4.685528    30.475645    -29.132881    41.205856    8.629825    -32.760777    100.023682    28.239769    -32.857761    38.953033    14.169693    -44.153503    -9.355767    -18.094564    28.874857    -12.610595    -12.706810    5.440556    35.088387    0.000000    0.000000    0.000000    -14.319288    4.403299    -31.849291    3.179290    48.706886    -17.200621    4.670475    -35.308960    -14.465884    0.000000    0.000000    0.000000    
11.951710    142.024414    31.444603    1.930439    1.547898    -7.565812    0.690041    1.534013    5.958299    -0.540334    -1.443578    1.982075    14.175951    3.502749    10.185621    -10.548800    -0.057593    7.428818    12.705030    1.666613    -14.478479    -4.636957    -10.240137    -21.337709    12.136836    -0.280932    -61.050804    -14.495084    13.205164    -47.453384    -10.810960    -4.385211    -4.683379    30.465466    -29.139956    41.200794    8.633634    -32.740139    100.030403    28.212257    -32.855583    38.933224    14.182911    -44.140804    -9.356261    -18.144251    28.905016    -12.547852    -12.677578    5.411638    35.092262    0.000000    0.000000    0.000000    -14.339305    4.395155    -31.766439    3.189713    48.721432    -17.238945    4.688775    -35.281422    -14.475805    0.000000    0.000000    0.000000    
11.973138    142.018646    31.475163    1.943715    1.537892    -7.605317    0.677266    1.546296    5.968690    -0.542602    -1.446649    1.985443    14.172800    3.524150    10.199757    -10.549481    -0.108065    7.442019    12.696383    1.666998    -14.450564    -4.638161    -10.260059    -21.331942    12.141553    -0.272748    -61.054291    -14.506126    13.225207    -47.480350    -10.807599    -4.382655    -4.668929    30.460075    -29.148232    41.201706    8.634153    -32.744194    100.031593    28.223061    -32.853210    38.948273    14.194028    -44.129490    -9.343614    -18.180067    28.934851    -12.512177    -12.653207    5.376654    35.083450    0.000000    0.000000    0.000000    -14.363758    4.381820    -31.686935    3.199440    48.739765    -17.262980    4.694872    -35.270626    -14.497410    0.000000    0.000000    0.000000    
